<mxfile host="app.diagrams.net" modified="2024-02-22T18:23:11.461Z" agent="Mozilla/5.0 (Windows NT 10.0; Win64; x64) AppleWebKit/537.36 (KHTML, like Gecko) Chrome/121.0.0.0 Safari/537.36" etag="tqD33vFtUlL7EZ6fTsL_" version="23.1.5" type="github">
  <diagram name="Page-1" id="cklbVcNHN72N4mOux92v">
    <mxGraphModel dx="2284" dy="738" grid="1" gridSize="10" guides="1" tooltips="1" connect="1" arrows="1" fold="1" page="1" pageScale="1" pageWidth="850" pageHeight="1100" math="0" shadow="0">
      <root>
        <mxCell id="0" />
        <mxCell id="1" parent="0" />
        <mxCell id="McgiRGSPzC1NFYn7cAQ9-3" value="" style="edgeStyle=orthogonalEdgeStyle;rounded=0;orthogonalLoop=1;jettySize=auto;html=1;" edge="1" parent="1" source="McgiRGSPzC1NFYn7cAQ9-1" target="McgiRGSPzC1NFYn7cAQ9-2">
          <mxGeometry relative="1" as="geometry" />
        </mxCell>
        <mxCell id="McgiRGSPzC1NFYn7cAQ9-5" value="" style="edgeStyle=orthogonalEdgeStyle;rounded=0;orthogonalLoop=1;jettySize=auto;html=1;" edge="1" parent="1" source="McgiRGSPzC1NFYn7cAQ9-1" target="McgiRGSPzC1NFYn7cAQ9-4">
          <mxGeometry relative="1" as="geometry" />
        </mxCell>
        <mxCell id="McgiRGSPzC1NFYn7cAQ9-13" value="" style="edgeStyle=orthogonalEdgeStyle;rounded=0;orthogonalLoop=1;jettySize=auto;html=1;fontFamily=Helvetica;fontSize=12;fontColor=default;" edge="1" parent="1" source="McgiRGSPzC1NFYn7cAQ9-1" target="McgiRGSPzC1NFYn7cAQ9-12">
          <mxGeometry relative="1" as="geometry" />
        </mxCell>
        <mxCell id="McgiRGSPzC1NFYn7cAQ9-1" value="Dark Gamma Reactor&lt;br&gt;Triple Assembler" style="rounded=0;whiteSpace=wrap;html=1;strokeColor=default;align=center;verticalAlign=middle;fontFamily=Helvetica;fontSize=12;fontColor=default;fillColor=default;" vertex="1" parent="1">
          <mxGeometry x="365" y="70" width="120" height="60" as="geometry" />
        </mxCell>
        <mxCell id="McgiRGSPzC1NFYn7cAQ9-2" value="&lt;font style=&quot;font-size: 11px;&quot;&gt;Cosmos Alloy Component&lt;/font&gt;" style="rounded=0;whiteSpace=wrap;html=1;" vertex="1" parent="1">
          <mxGeometry x="358" y="210" width="135" height="60" as="geometry" />
        </mxCell>
        <mxCell id="McgiRGSPzC1NFYn7cAQ9-4" value="Dark Matter Battery&lt;div&gt;&lt;br/&gt;&lt;/div&gt;" style="rounded=0;whiteSpace=wrap;html=1;" vertex="1" parent="1">
          <mxGeometry x="-310" y="210" width="120" height="60" as="geometry" />
        </mxCell>
        <mxCell id="McgiRGSPzC1NFYn7cAQ9-12" value="Dark Gamma Reactor&lt;br&gt;Triple Assembler" style="rounded=0;whiteSpace=wrap;html=1;strokeColor=default;align=center;verticalAlign=middle;fontFamily=Helvetica;fontSize=12;fontColor=default;fillColor=default;" vertex="1" parent="1">
          <mxGeometry x="1040" y="220" width="120" height="60" as="geometry" />
        </mxCell>
      </root>
    </mxGraphModel>
  </diagram>
</mxfile>
